<svg id="Layer_1" data-name="Layer 1" xmlns="http://www.w3.org/2000/svg" viewBox="0 0 32 22"><defs><style>.cls-1{fill:#a50064;}.cls-2{fill:#fff;}</style></defs><rect class="cls-1" width="32" height="22" rx="3.5"/><path class="cls-2" d="M20.24,10.31a3.16,3.16,0,1,0-3.15-3.15A3.15,3.15,0,0,0,20.24,10.31Zm0-4.5A1.35,1.35,0,1,1,18.9,7.16,1.34,1.34,0,0,1,20.24,5.81Z"/><path class="cls-2" d="M13.81,4a2.36,2.36,0,0,0-1.42.48A2.33,2.33,0,0,0,11,4,2.37,2.37,0,0,0,8.6,6.37v3.94h1.81v-4a.54.54,0,1,1,1.07,0v4h1.81v-4a.54.54,0,1,1,1.07,0v4h1.81V6.37A2.36,2.36,0,0,0,13.81,4Z"/><path class="cls-2" d="M20.24,11.68a3.16,3.16,0,1,0,3.16,3.16A3.15,3.15,0,0,0,20.24,11.68Zm0,4.5a1.35,1.35,0,1,1,1.35-1.34A1.34,1.34,0,0,1,20.24,16.18Z"/><path class="cls-2" d="M13.81,11.68a2.42,2.42,0,0,0-1.42.47,2.37,2.37,0,0,0-3.78,1.9V18h1.81V14a.54.54,0,1,1,1.07,0v4H13.3V14a.54.54,0,1,1,1.07,0v4h1.8V14A2.36,2.36,0,0,0,13.81,11.68Z"/></svg>